<svg xmlns="http://www.w3.org/2000/svg" xmlns:xlink="http://www.w3.org/1999/xlink" width="500" zoomAndPan="magnify" viewBox="0 0 375 149.999998" height="200" preserveAspectRatio="xMidYMid meet" version="1.0"><defs><filter x="0%" y="0%" width="100%" height="100%" id="bf04ddd0f0"><feColorMatrix values="0 0 0 0 1 0 0 0 0 1 0 0 0 0 1 0 0 0 1 0" color-interpolation-filters="sRGB"/></filter><g/><clipPath id="b06d689c2f"><path d="M 0 0 L 228.15625 0 L 228.15625 150 L 0 150 Z M 0 0 " clip-rule="nonzero"/></clipPath><linearGradient x1="8.96605" gradientTransform="matrix(0.750366, 0, 0, 0.749835, -6.727819, 34.275161)" y1="54" x2="313.027988" gradientUnits="userSpaceOnUse" y2="54" id="65e9534aa1"><stop stop-opacity="1" stop-color="rgb(92.16156%, 29.441833%, 24.72229%)" offset="0"/><stop stop-opacity="1" stop-color="rgb(92.176819%, 29.672241%, 24.809265%)" offset="0.00390625"/><stop stop-opacity="1" stop-color="rgb(92.193604%, 29.902649%, 24.897766%)" offset="0.0078125"/><stop stop-opacity="1" stop-color="rgb(92.208862%, 30.133057%, 24.986267%)" offset="0.0117187"/><stop stop-opacity="1" stop-color="rgb(92.224121%, 30.363464%, 25.074768%)" offset="0.015625"/><stop stop-opacity="1" stop-color="rgb(92.23938%, 30.592346%, 25.163269%)" offset="0.0195312"/><stop stop-opacity="1" stop-color="rgb(92.256165%, 30.822754%, 25.25177%)" offset="0.0234375"/><stop stop-opacity="1" stop-color="rgb(92.271423%, 31.053162%, 25.340271%)" offset="0.0273438"/><stop stop-opacity="1" stop-color="rgb(92.288208%, 31.283569%, 25.428772%)" offset="0.03125"/><stop stop-opacity="1" stop-color="rgb(92.303467%, 31.513977%, 25.515747%)" offset="0.0351562"/><stop stop-opacity="1" stop-color="rgb(92.318726%, 31.744385%, 25.604248%)" offset="0.0390625"/><stop stop-opacity="1" stop-color="rgb(92.333984%, 31.974792%, 25.692749%)" offset="0.0429687"/><stop stop-opacity="1" stop-color="rgb(92.350769%, 32.2052%, 25.78125%)" offset="0.046875"/><stop stop-opacity="1" stop-color="rgb(92.366028%, 32.435608%, 25.869751%)" offset="0.0507812"/><stop stop-opacity="1" stop-color="rgb(92.382812%, 32.666016%, 25.958252%)" offset="0.0546875"/><stop stop-opacity="1" stop-color="rgb(92.398071%, 32.894897%, 26.046753%)" offset="0.0585937"/><stop stop-opacity="1" stop-color="rgb(92.41333%, 33.125305%, 26.135254%)" offset="0.0625"/><stop stop-opacity="1" stop-color="rgb(92.428589%, 33.355713%, 26.222229%)" offset="0.0664062"/><stop stop-opacity="1" stop-color="rgb(92.445374%, 33.586121%, 26.31073%)" offset="0.0703125"/><stop stop-opacity="1" stop-color="rgb(92.460632%, 33.816528%, 26.399231%)" offset="0.0742187"/><stop stop-opacity="1" stop-color="rgb(92.477417%, 34.046936%, 26.487732%)" offset="0.078125"/><stop stop-opacity="1" stop-color="rgb(92.492676%, 34.277344%, 26.576233%)" offset="0.0820312"/><stop stop-opacity="1" stop-color="rgb(92.507935%, 34.507751%, 26.664734%)" offset="0.0859375"/><stop stop-opacity="1" stop-color="rgb(92.523193%, 34.738159%, 26.753235%)" offset="0.0898437"/><stop stop-opacity="1" stop-color="rgb(92.539978%, 34.968567%, 26.841736%)" offset="0.09375"/><stop stop-opacity="1" stop-color="rgb(92.555237%, 35.197449%, 26.928711%)" offset="0.0976562"/><stop stop-opacity="1" stop-color="rgb(92.572021%, 35.427856%, 27.017212%)" offset="0.101562"/><stop stop-opacity="1" stop-color="rgb(92.58728%, 35.658264%, 27.105713%)" offset="0.105469"/><stop stop-opacity="1" stop-color="rgb(92.602539%, 35.888672%, 27.194214%)" offset="0.109375"/><stop stop-opacity="1" stop-color="rgb(92.617798%, 36.11908%, 27.282715%)" offset="0.113281"/><stop stop-opacity="1" stop-color="rgb(92.634583%, 36.349487%, 27.371216%)" offset="0.117187"/><stop stop-opacity="1" stop-color="rgb(92.649841%, 36.579895%, 27.459717%)" offset="0.121094"/><stop stop-opacity="1" stop-color="rgb(92.666626%, 36.810303%, 27.548218%)" offset="0.125"/><stop stop-opacity="1" stop-color="rgb(92.681885%, 37.04071%, 27.635193%)" offset="0.128906"/><stop stop-opacity="1" stop-color="rgb(92.697144%, 37.271118%, 27.723694%)" offset="0.132812"/><stop stop-opacity="1" stop-color="rgb(92.712402%, 37.5%, 27.812195%)" offset="0.136719"/><stop stop-opacity="1" stop-color="rgb(92.729187%, 37.730408%, 27.900696%)" offset="0.140625"/><stop stop-opacity="1" stop-color="rgb(92.744446%, 37.960815%, 27.989197%)" offset="0.144531"/><stop stop-opacity="1" stop-color="rgb(92.76123%, 38.191223%, 28.077698%)" offset="0.148437"/><stop stop-opacity="1" stop-color="rgb(92.776489%, 38.421631%, 28.166199%)" offset="0.152344"/><stop stop-opacity="1" stop-color="rgb(92.791748%, 38.652039%, 28.2547%)" offset="0.15625"/><stop stop-opacity="1" stop-color="rgb(92.807007%, 38.882446%, 28.341675%)" offset="0.160156"/><stop stop-opacity="1" stop-color="rgb(92.823792%, 39.112854%, 28.430176%)" offset="0.164062"/><stop stop-opacity="1" stop-color="rgb(92.83905%, 39.343262%, 28.518677%)" offset="0.167969"/><stop stop-opacity="1" stop-color="rgb(92.854309%, 39.573669%, 28.607178%)" offset="0.171875"/><stop stop-opacity="1" stop-color="rgb(92.869568%, 39.802551%, 28.695679%)" offset="0.175781"/><stop stop-opacity="1" stop-color="rgb(92.886353%, 40.032959%, 28.78418%)" offset="0.179687"/><stop stop-opacity="1" stop-color="rgb(92.901611%, 40.263367%, 28.871155%)" offset="0.183594"/><stop stop-opacity="1" stop-color="rgb(92.918396%, 40.493774%, 28.959656%)" offset="0.1875"/><stop stop-opacity="1" stop-color="rgb(92.933655%, 40.724182%, 29.048157%)" offset="0.191406"/><stop stop-opacity="1" stop-color="rgb(92.948914%, 40.95459%, 29.136658%)" offset="0.195312"/><stop stop-opacity="1" stop-color="rgb(92.964172%, 41.184998%, 29.225159%)" offset="0.199219"/><stop stop-opacity="1" stop-color="rgb(92.980957%, 41.415405%, 29.31366%)" offset="0.203125"/><stop stop-opacity="1" stop-color="rgb(92.996216%, 41.645813%, 29.402161%)" offset="0.207031"/><stop stop-opacity="1" stop-color="rgb(93.013%, 41.876221%, 29.490662%)" offset="0.210937"/><stop stop-opacity="1" stop-color="rgb(93.028259%, 42.105103%, 29.577637%)" offset="0.214844"/><stop stop-opacity="1" stop-color="rgb(93.043518%, 42.33551%, 29.666138%)" offset="0.21875"/><stop stop-opacity="1" stop-color="rgb(93.058777%, 42.565918%, 29.754639%)" offset="0.222656"/><stop stop-opacity="1" stop-color="rgb(93.075562%, 42.796326%, 29.84314%)" offset="0.226562"/><stop stop-opacity="1" stop-color="rgb(93.09082%, 43.026733%, 29.931641%)" offset="0.230469"/><stop stop-opacity="1" stop-color="rgb(93.107605%, 43.257141%, 30.020142%)" offset="0.234375"/><stop stop-opacity="1" stop-color="rgb(93.122864%, 43.487549%, 30.108643%)" offset="0.238281"/><stop stop-opacity="1" stop-color="rgb(93.138123%, 43.717957%, 30.197144%)" offset="0.242187"/><stop stop-opacity="1" stop-color="rgb(93.153381%, 43.948364%, 30.284119%)" offset="0.246094"/><stop stop-opacity="1" stop-color="rgb(93.170166%, 44.178772%, 30.37262%)" offset="0.25"/><stop stop-opacity="1" stop-color="rgb(93.185425%, 44.407654%, 30.461121%)" offset="0.253906"/><stop stop-opacity="1" stop-color="rgb(93.202209%, 44.638062%, 30.549622%)" offset="0.257812"/><stop stop-opacity="1" stop-color="rgb(93.217468%, 44.868469%, 30.638123%)" offset="0.261719"/><stop stop-opacity="1" stop-color="rgb(93.232727%, 45.098877%, 30.726624%)" offset="0.265625"/><stop stop-opacity="1" stop-color="rgb(93.247986%, 45.329285%, 30.815125%)" offset="0.269531"/><stop stop-opacity="1" stop-color="rgb(93.264771%, 45.559692%, 30.903625%)" offset="0.273437"/><stop stop-opacity="1" stop-color="rgb(93.280029%, 45.7901%, 30.990601%)" offset="0.277344"/><stop stop-opacity="1" stop-color="rgb(93.296814%, 46.020508%, 31.079102%)" offset="0.28125"/><stop stop-opacity="1" stop-color="rgb(93.312073%, 46.250916%, 31.167603%)" offset="0.285156"/><stop stop-opacity="1" stop-color="rgb(93.327332%, 46.481323%, 31.256104%)" offset="0.289062"/><stop stop-opacity="1" stop-color="rgb(93.34259%, 46.710205%, 31.344604%)" offset="0.292969"/><stop stop-opacity="1" stop-color="rgb(93.359375%, 46.940613%, 31.433105%)" offset="0.296875"/><stop stop-opacity="1" stop-color="rgb(93.374634%, 47.171021%, 31.521606%)" offset="0.300781"/><stop stop-opacity="1" stop-color="rgb(93.391418%, 47.401428%, 31.610107%)" offset="0.304687"/><stop stop-opacity="1" stop-color="rgb(93.406677%, 47.631836%, 31.697083%)" offset="0.308594"/><stop stop-opacity="1" stop-color="rgb(93.421936%, 47.862244%, 31.785583%)" offset="0.3125"/><stop stop-opacity="1" stop-color="rgb(93.437195%, 48.092651%, 31.874084%)" offset="0.316406"/><stop stop-opacity="1" stop-color="rgb(93.453979%, 48.323059%, 31.962585%)" offset="0.320312"/><stop stop-opacity="1" stop-color="rgb(93.469238%, 48.551941%, 32.051086%)" offset="0.324219"/><stop stop-opacity="1" stop-color="rgb(93.486023%, 48.782349%, 32.139587%)" offset="0.328125"/><stop stop-opacity="1" stop-color="rgb(93.501282%, 49.012756%, 32.228088%)" offset="0.332031"/><stop stop-opacity="1" stop-color="rgb(93.516541%, 49.243164%, 32.316589%)" offset="0.335937"/><stop stop-opacity="1" stop-color="rgb(93.531799%, 49.473572%, 32.403564%)" offset="0.339844"/><stop stop-opacity="1" stop-color="rgb(93.548584%, 49.703979%, 32.492065%)" offset="0.34375"/><stop stop-opacity="1" stop-color="rgb(93.563843%, 49.934387%, 32.580566%)" offset="0.347656"/><stop stop-opacity="1" stop-color="rgb(93.580627%, 50.164795%, 32.669067%)" offset="0.351562"/><stop stop-opacity="1" stop-color="rgb(93.595886%, 50.395203%, 32.757568%)" offset="0.355469"/><stop stop-opacity="1" stop-color="rgb(93.611145%, 50.62561%, 32.846069%)" offset="0.359375"/><stop stop-opacity="1" stop-color="rgb(93.626404%, 50.854492%, 32.93457%)" offset="0.363281"/><stop stop-opacity="1" stop-color="rgb(93.643188%, 51.0849%, 33.023071%)" offset="0.367187"/><stop stop-opacity="1" stop-color="rgb(93.658447%, 51.315308%, 33.110046%)" offset="0.371094"/><stop stop-opacity="1" stop-color="rgb(93.675232%, 51.545715%, 33.198547%)" offset="0.375"/><stop stop-opacity="1" stop-color="rgb(93.690491%, 51.776123%, 33.287048%)" offset="0.378906"/><stop stop-opacity="1" stop-color="rgb(93.70575%, 52.006531%, 33.375549%)" offset="0.382812"/><stop stop-opacity="1" stop-color="rgb(93.721008%, 52.236938%, 33.46405%)" offset="0.386719"/><stop stop-opacity="1" stop-color="rgb(93.737793%, 52.467346%, 33.552551%)" offset="0.390625"/><stop stop-opacity="1" stop-color="rgb(93.753052%, 52.697754%, 33.641052%)" offset="0.394531"/><stop stop-opacity="1" stop-color="rgb(93.769836%, 52.928162%, 33.729553%)" offset="0.398437"/><stop stop-opacity="1" stop-color="rgb(93.785095%, 53.157043%, 33.816528%)" offset="0.402344"/><stop stop-opacity="1" stop-color="rgb(93.800354%, 53.387451%, 33.905029%)" offset="0.40625"/><stop stop-opacity="1" stop-color="rgb(93.815613%, 53.617859%, 33.99353%)" offset="0.410156"/><stop stop-opacity="1" stop-color="rgb(93.832397%, 53.848267%, 34.082031%)" offset="0.414062"/><stop stop-opacity="1" stop-color="rgb(93.847656%, 54.078674%, 34.170532%)" offset="0.417969"/><stop stop-opacity="1" stop-color="rgb(93.864441%, 54.309082%, 34.259033%)" offset="0.421875"/><stop stop-opacity="1" stop-color="rgb(93.8797%, 54.53949%, 34.347534%)" offset="0.425781"/><stop stop-opacity="1" stop-color="rgb(93.894958%, 54.769897%, 34.436035%)" offset="0.429687"/><stop stop-opacity="1" stop-color="rgb(93.910217%, 55.000305%, 34.52301%)" offset="0.433594"/><stop stop-opacity="1" stop-color="rgb(93.927002%, 55.230713%, 34.611511%)" offset="0.4375"/><stop stop-opacity="1" stop-color="rgb(93.942261%, 55.459595%, 34.700012%)" offset="0.441406"/><stop stop-opacity="1" stop-color="rgb(93.959045%, 55.690002%, 34.788513%)" offset="0.445312"/><stop stop-opacity="1" stop-color="rgb(93.974304%, 55.92041%, 34.877014%)" offset="0.449219"/><stop stop-opacity="1" stop-color="rgb(93.989563%, 56.150818%, 34.965515%)" offset="0.453125"/><stop stop-opacity="1" stop-color="rgb(94.004822%, 56.381226%, 35.05249%)" offset="0.457031"/><stop stop-opacity="1" stop-color="rgb(94.021606%, 56.611633%, 35.140991%)" offset="0.460937"/><stop stop-opacity="1" stop-color="rgb(94.036865%, 56.842041%, 35.229492%)" offset="0.464844"/><stop stop-opacity="1" stop-color="rgb(94.05365%, 57.072449%, 35.317993%)" offset="0.46875"/><stop stop-opacity="1" stop-color="rgb(94.068909%, 57.302856%, 35.406494%)" offset="0.472656"/><stop stop-opacity="1" stop-color="rgb(94.084167%, 57.533264%, 35.494995%)" offset="0.476562"/><stop stop-opacity="1" stop-color="rgb(94.099426%, 57.762146%, 35.583496%)" offset="0.480469"/><stop stop-opacity="1" stop-color="rgb(94.116211%, 57.992554%, 35.671997%)" offset="0.484375"/><stop stop-opacity="1" stop-color="rgb(94.117737%, 58.015442%, 35.679626%)" offset="0.5"/><stop stop-opacity="1" stop-color="rgb(94.119263%, 58.039856%, 35.688782%)" offset="1"/></linearGradient><clipPath id="1dae071355"><rect x="0" width="375" y="0" height="150"/></clipPath><clipPath id="479bb24fc3"><rect x="0" width="375" y="0" height="150"/></clipPath><clipPath id="c196db7429"><rect x="0" width="375" y="0" height="150"/></clipPath><mask id="064e30d62e"><g filter="url(#bf04ddd0f0)"><g transform="matrix(1, 0, 0, 1, 0, -0.000000000000007527)"><g clip-path="url(#c196db7429)"><g transform="matrix(1, 0, 0, 1, 0, -0.000000000000007527)"><g clip-path="url(#479bb24fc3)"><g fill="#000000" fill-opacity="1"><g transform="translate(0.00586353, 95.391251)"><g><path d="M 25.421875 -5.875 C 26.867188 -5.875 27.882812 -6.28125 28.46875 -7.09375 C 29.0625 -7.914062 29.359375 -8.835938 29.359375 -9.859375 L 29.359375 -36.75 C 29.359375 -37.726562 29.0625 -38.628906 28.46875 -39.453125 C 27.882812 -40.273438 26.867188 -40.6875 25.421875 -40.6875 L 11.6875 -40.6875 L 11.625 -2.40625 C 11.625 -1.539062 11.289062 -0.851562 10.625 -0.34375 C 9.957031 0.15625 9.132812 0.40625 8.15625 0.40625 C 5.851562 0.40625 4.703125 -0.53125 4.703125 -2.40625 L 4.703125 -43.09375 C 4.703125 -44.5 5.0625 -45.4375 5.78125 -45.90625 C 6.507812 -46.375 7.378906 -46.609375 8.390625 -46.609375 L 26.890625 -46.609375 C 27.898438 -46.609375 28.953125 -46.390625 30.046875 -45.953125 C 31.148438 -45.523438 32.207031 -44.984375 33.21875 -44.328125 L 33.171875 -44.328125 C 34.179688 -43.578125 34.960938 -42.601562 35.515625 -41.40625 C 36.066406 -40.21875 36.34375 -38.84375 36.34375 -37.28125 L 36.34375 -9.390625 C 36.34375 -6.222656 35.285156 -3.859375 33.171875 -2.296875 C 32.148438 -1.546875 31.097656 -0.960938 30.015625 -0.546875 C 28.941406 -0.140625 27.898438 0.0625 26.890625 0.0625 L 17.03125 0.0625 C 16.363281 0.0625 15.84375 -0.207031 15.46875 -0.75 C 15.09375 -1.300781 14.90625 -2.03125 14.90625 -2.9375 C 14.90625 -4.894531 15.75 -5.875 17.4375 -5.875 Z M 25.421875 -5.875 "/></g></g></g><g fill="#000000" fill-opacity="1"><g transform="translate(40.508344, 95.391251)"><g><path d="M 18.484375 0.296875 C 17.703125 0.296875 16.867188 0.171875 15.984375 -0.078125 C 15.109375 -0.335938 14.476562 -0.820312 14.09375 -1.53125 C 13.1875 -4.582031 12.242188 -7.710938 11.265625 -10.921875 C 10.285156 -14.128906 9.304688 -17.28125 8.328125 -20.375 C 7.234375 -24.007812 6.0625 -27.789062 4.8125 -31.71875 C 3.5625 -35.65625 2.390625 -39.425781 1.296875 -43.03125 C 1.054688 -43.894531 1.191406 -44.648438 1.703125 -45.296875 C 2.210938 -45.941406 2.9375 -46.421875 3.875 -46.734375 C 4.457031 -46.890625 4.96875 -46.96875 5.40625 -46.96875 C 6.726562 -46.96875 7.585938 -46.300781 7.984375 -44.96875 L 12.328125 -31.046875 C 12.722656 -29.640625 13.179688 -28.09375 13.703125 -26.40625 C 14.234375 -24.726562 14.769531 -23.007812 15.3125 -21.25 C 15.863281 -19.488281 16.410156 -17.738281 16.953125 -16 C 17.503906 -14.257812 18.015625 -12.644531 18.484375 -11.15625 C 19.234375 -13.625 20.046875 -16.296875 20.921875 -19.171875 C 21.804688 -22.046875 22.707031 -24.96875 23.625 -27.9375 C 24.539062 -30.914062 25.445312 -33.863281 26.34375 -36.78125 C 27.25 -39.695312 28.09375 -42.425781 28.875 -44.96875 C 29.3125 -46.300781 30.15625 -46.96875 31.40625 -46.96875 C 31.875 -46.96875 32.421875 -46.890625 33.046875 -46.734375 C 35.203125 -46.140625 36.046875 -44.90625 35.578125 -43.03125 C 33.460938 -36.175781 31.328125 -29.265625 29.171875 -22.296875 C 27.023438 -15.335938 24.894531 -8.414062 22.78125 -1.53125 C 22.46875 -0.75 21.890625 -0.25 21.046875 -0.03125 C 20.203125 0.1875 19.347656 0.296875 18.484375 0.296875 Z M 18.484375 0.296875 "/></g></g></g><g fill="#000000" fill-opacity="1"><g transform="translate(76.960579, 95.391251)"><g><path d="M 8.453125 0.0625 C 7.003906 0.0625 6.023438 -0.304688 5.515625 -1.046875 C 5.003906 -1.796875 4.75 -2.617188 4.75 -3.515625 L 4.75 -43.09375 C 4.75 -43.988281 5.003906 -44.796875 5.515625 -45.515625 C 6.023438 -46.242188 7.003906 -46.609375 8.453125 -46.609375 L 28.875 -46.609375 C 30.320312 -46.609375 31.085938 -45.628906 31.171875 -43.671875 C 31.242188 -41.679688 30.476562 -40.6875 28.875 -40.6875 L 11.6875 -40.6875 L 11.6875 -5.875 L 29.9375 -5.875 C 31.382812 -5.875 32.128906 -4.914062 32.171875 -3 C 32.242188 -0.957031 31.5 0.0625 29.9375 0.0625 Z M 26.703125 -24.25 C 26.703125 -22.875 26.222656 -21.71875 25.265625 -20.78125 C 24.304688 -19.84375 23.144531 -19.375 21.78125 -19.375 C 20.445312 -19.375 19.3125 -19.84375 18.375 -20.78125 C 17.4375 -21.71875 16.96875 -22.875 16.96875 -24.25 C 16.96875 -25.613281 17.4375 -26.765625 18.375 -27.703125 C 19.3125 -28.640625 20.445312 -29.109375 21.78125 -29.109375 C 23.144531 -29.109375 24.304688 -28.640625 25.265625 -27.703125 C 26.222656 -26.765625 26.703125 -25.613281 26.703125 -24.25 Z M 26.703125 -24.25 "/></g></g></g></g></g></g></g></g></mask><clipPath id="df10896fff"><path d="M 0 0 L 228.15625 0 L 228.15625 150 L 0 150 Z M 0 0 " clip-rule="nonzero"/></clipPath><clipPath id="948edd9998"><rect x="0" width="375" y="0" height="150"/></clipPath><clipPath id="268b91b3f4"><rect x="0" width="375" y="0" height="150"/></clipPath></defs><g fill="#000000" fill-opacity="1"><g transform="translate(110.771482, 95.391251)"><g><path d="M 23.25 -20.546875 C 24.226562 -20.546875 25.273438 -20.320312 26.390625 -19.875 C 27.503906 -19.425781 28.550781 -18.867188 29.53125 -18.203125 L 29.46875 -18.203125 C 30.488281 -17.453125 31.269531 -16.488281 31.8125 -15.3125 C 32.363281 -14.144531 32.640625 -12.738281 32.640625 -11.09375 L 32.640625 -9.328125 C 32.640625 -6.117188 31.582031 -3.753906 29.46875 -2.234375 C 28.445312 -1.453125 27.40625 -0.882812 26.34375 -0.53125 C 25.289062 -0.175781 24.257812 0 23.25 0 L 13.265625 0 C 12.242188 0 11.207031 -0.175781 10.15625 -0.53125 C 9.101562 -0.882812 8.066406 -1.453125 7.046875 -2.234375 C 4.929688 -3.722656 3.875 -6.085938 3.875 -9.328125 L 3.875 -10.03125 C 3.875 -11.71875 4.953125 -12.539062 7.109375 -12.5 C 9.296875 -12.5 10.390625 -11.675781 10.390625 -10.03125 L 10.390625 -9.390625 C 10.390625 -8.453125 10.679688 -7.570312 11.265625 -6.75 C 11.859375 -5.925781 12.894531 -5.515625 14.375 -5.515625 L 22.125 -5.515625 C 23.613281 -5.515625 24.648438 -5.925781 25.234375 -6.75 C 25.828125 -7.570312 26.125 -8.453125 26.125 -9.390625 L 26.125 -11.03125 C 26.125 -11.539062 26.054688 -12.03125 25.921875 -12.5 C 25.785156 -12.96875 25.554688 -13.390625 25.234375 -13.765625 C 24.921875 -14.140625 24.507812 -14.441406 24 -14.671875 C 23.5 -14.910156 22.875 -15.03125 22.125 -15.03125 L 13.5625 -15.03125 C 11.5625 -15.03125 9.46875 -15.734375 7.28125 -17.140625 C 5.207031 -18.472656 4.171875 -20.765625 4.171875 -24.015625 L 4.171875 -26 C 4.171875 -27.570312 4.441406 -28.953125 4.984375 -30.140625 C 5.535156 -31.335938 6.320312 -32.304688 7.34375 -33.046875 L 7.28125 -33.046875 C 8.257812 -33.710938 9.296875 -34.257812 10.390625 -34.6875 C 11.484375 -35.125 12.539062 -35.34375 13.5625 -35.34375 L 22.953125 -35.34375 C 23.972656 -35.34375 25.019531 -35.125 26.09375 -34.6875 C 27.164062 -34.257812 28.210938 -33.710938 29.234375 -33.046875 L 29.171875 -33.046875 C 30.191406 -32.304688 30.972656 -31.335938 31.515625 -30.140625 C 32.066406 -28.953125 32.34375 -27.570312 32.34375 -26 L 32.34375 -25.484375 C 32.34375 -24.660156 32.066406 -24.0625 31.515625 -23.6875 C 30.972656 -23.3125 30.171875 -23.109375 29.109375 -23.078125 C 26.960938 -23.035156 25.890625 -23.835938 25.890625 -25.484375 L 25.890625 -25.953125 C 25.890625 -26.929688 25.582031 -27.820312 24.96875 -28.625 C 24.363281 -29.425781 23.335938 -29.828125 21.890625 -29.828125 L 14.609375 -29.828125 C 13.160156 -29.828125 12.132812 -29.425781 11.53125 -28.625 C 10.925781 -27.820312 10.625 -26.929688 10.625 -25.953125 L 10.625 -24.53125 C 10.625 -23.519531 10.925781 -22.601562 11.53125 -21.78125 C 12.132812 -20.957031 13.160156 -20.546875 14.609375 -20.546875 Z M 23.25 -20.546875 "/></g></g></g><g fill="#000000" fill-opacity="1"><g transform="translate(146.871524, 95.391251)"><g><path d="M 22.953125 -35.34375 C 23.972656 -35.34375 25.019531 -35.125 26.09375 -34.6875 C 27.164062 -34.257812 28.210938 -33.710938 29.234375 -33.046875 L 29.171875 -33.046875 C 30.191406 -32.304688 30.972656 -31.335938 31.515625 -30.140625 C 32.066406 -28.953125 32.34375 -27.570312 32.34375 -26 L 32.34375 -9.328125 C 32.34375 -6.117188 31.285156 -3.753906 29.171875 -2.234375 C 27.097656 -0.742188 25.023438 0 22.953125 0 L 13.5625 0 C 12.539062 0 11.5 -0.175781 10.4375 -0.53125 C 9.382812 -0.882812 8.351562 -1.453125 7.34375 -2.234375 C 5.226562 -3.722656 4.171875 -6.085938 4.171875 -9.328125 L 4.171875 -26 C 4.171875 -27.570312 4.441406 -28.953125 4.984375 -30.140625 C 5.535156 -31.335938 6.320312 -32.304688 7.34375 -33.046875 L 7.28125 -33.046875 C 8.257812 -33.710938 9.296875 -34.257812 10.390625 -34.6875 C 11.484375 -35.125 12.539062 -35.34375 13.5625 -35.34375 Z M 21.890625 -5.515625 C 23.335938 -5.515625 24.363281 -5.925781 24.96875 -6.75 C 25.582031 -7.570312 25.890625 -8.453125 25.890625 -9.390625 L 25.890625 -25.953125 C 25.890625 -26.929688 25.582031 -27.820312 24.96875 -28.625 C 24.363281 -29.425781 23.335938 -29.828125 21.890625 -29.828125 L 14.609375 -29.828125 C 13.160156 -29.828125 12.132812 -29.425781 11.53125 -28.625 C 10.925781 -27.820312 10.625 -26.929688 10.625 -25.953125 L 10.625 -9.390625 C 10.625 -8.453125 10.925781 -7.570312 11.53125 -6.75 C 12.132812 -5.925781 13.160156 -5.515625 14.609375 -5.515625 Z M 21.890625 -5.515625 "/></g></g></g><g fill="#000000" fill-opacity="1"><g transform="translate(182.443273, 95.391251)"><g><path d="M 10.859375 -2.296875 C 10.859375 -0.453125 9.78125 0.46875 7.625 0.46875 C 5.4375 0.46875 4.34375 -0.453125 4.34375 -2.296875 L 4.34375 -44.375 C 4.34375 -46.21875 5.4375 -47.140625 7.625 -47.140625 C 9.78125 -47.140625 10.859375 -46.21875 10.859375 -44.375 Z M 10.859375 -2.296875 "/></g></g></g><g fill="#000000" fill-opacity="1"><g transform="translate(197.235481, 95.391251)"><g><path d="M 32.40625 -9.328125 C 32.40625 -7.765625 32.128906 -6.375 31.578125 -5.15625 C 31.035156 -3.945312 30.253906 -2.972656 29.234375 -2.234375 L 29.296875 -2.234375 C 28.316406 -1.566406 27.273438 -1.023438 26.171875 -0.609375 C 25.078125 -0.203125 24.023438 0 23.015625 0 L 13.5625 0 C 12.582031 0 11.535156 -0.203125 10.421875 -0.609375 C 9.304688 -1.023438 8.257812 -1.566406 7.28125 -2.234375 L 7.34375 -2.234375 C 6.320312 -2.972656 5.535156 -3.945312 4.984375 -5.15625 C 4.441406 -6.375 4.171875 -7.765625 4.171875 -9.328125 L 4.171875 -32.875 C 4.171875 -34.75 5.242188 -35.6875 7.390625 -35.6875 C 9.546875 -35.6875 10.625 -34.75 10.625 -32.875 L 10.625 -9.796875 C 10.625 -8.703125 10.898438 -7.742188 11.453125 -6.921875 C 11.953125 -5.984375 13.003906 -5.515625 14.609375 -5.515625 L 21.953125 -5.515625 C 23.515625 -5.515625 24.550781 -5.984375 25.0625 -6.921875 L 25 -6.875 C 25.632812 -7.8125 25.953125 -8.785156 25.953125 -9.796875 L 25.953125 -32.875 C 25.953125 -34.75 27.023438 -35.6875 29.171875 -35.6875 C 31.328125 -35.6875 32.40625 -34.75 32.40625 -32.875 Z M 32.40625 -9.328125 "/></g></g></g><g fill="#000000" fill-opacity="1"><g transform="translate(232.80723, 95.391251)"><g><path d="M 11.859375 -29.828125 L 11.859375 -8.453125 C 11.859375 -7.429688 12.070312 -6.644531 12.5 -6.09375 C 12.9375 -5.550781 13.859375 -5.28125 15.265625 -5.28125 L 16.796875 -5.28125 C 18.316406 -5.28125 19.039062 -4.378906 18.96875 -2.578125 C 18.96875 -0.742188 18.242188 0.171875 16.796875 0.171875 L 14.859375 0.171875 C 13.597656 0.171875 12.421875 0.00390625 11.328125 -0.328125 C 10.234375 -0.660156 9.175781 -1.140625 8.15625 -1.765625 L 8.15625 -1.703125 C 6.238281 -2.953125 5.28125 -5.179688 5.28125 -8.390625 L 5.28125 -29.828125 L 3 -29.828125 C 1.582031 -29.828125 0.835938 -30.742188 0.765625 -32.578125 C 0.765625 -34.421875 1.507812 -35.34375 3 -35.34375 L 5.28125 -35.34375 L 5.28125 -41.625 C 5.28125 -43.5 6.394531 -44.4375 8.625 -44.4375 C 10.78125 -44.4375 11.859375 -43.5 11.859375 -41.625 L 11.859375 -35.34375 L 16.734375 -35.34375 C 18.253906 -35.34375 18.976562 -34.421875 18.90625 -32.578125 C 18.90625 -30.742188 18.179688 -29.828125 16.734375 -29.828125 Z M 11.859375 -29.828125 "/></g></g></g><g fill="#000000" fill-opacity="1"><g transform="translate(252.706273, 95.391251)"><g><path d="M 10.796875 -2.46875 C 10.796875 -0.582031 9.722656 0.359375 7.578125 0.359375 C 5.378906 0.359375 4.28125 -0.582031 4.28125 -2.46875 L 4.28125 -32.75 C 4.28125 -34.632812 5.378906 -35.578125 7.578125 -35.578125 C 9.722656 -35.578125 10.796875 -34.632812 10.796875 -32.75 Z M 12.03125 -42.96875 C 12.03125 -41.71875 11.597656 -40.660156 10.734375 -39.796875 C 9.878906 -38.941406 8.828125 -38.515625 7.578125 -38.515625 C 6.316406 -38.515625 5.242188 -38.941406 4.359375 -39.796875 C 3.484375 -40.660156 3.046875 -41.71875 3.046875 -42.96875 C 3.046875 -44.257812 3.484375 -45.332031 4.359375 -46.1875 C 5.242188 -47.050781 6.316406 -47.484375 7.578125 -47.484375 C 8.828125 -47.484375 9.878906 -47.050781 10.734375 -46.1875 C 11.597656 -45.332031 12.03125 -44.257812 12.03125 -42.96875 Z M 12.03125 -42.96875 "/></g></g></g><g fill="#000000" fill-opacity="1"><g transform="translate(267.498482, 95.391251)"><g><path d="M 22.953125 -35.34375 C 23.972656 -35.34375 25.019531 -35.125 26.09375 -34.6875 C 27.164062 -34.257812 28.210938 -33.710938 29.234375 -33.046875 L 29.171875 -33.046875 C 30.191406 -32.304688 30.972656 -31.335938 31.515625 -30.140625 C 32.066406 -28.953125 32.34375 -27.570312 32.34375 -26 L 32.34375 -9.328125 C 32.34375 -6.117188 31.285156 -3.753906 29.171875 -2.234375 C 27.097656 -0.742188 25.023438 0 22.953125 0 L 13.5625 0 C 12.539062 0 11.5 -0.175781 10.4375 -0.53125 C 9.382812 -0.882812 8.351562 -1.453125 7.34375 -2.234375 C 5.226562 -3.722656 4.171875 -6.085938 4.171875 -9.328125 L 4.171875 -26 C 4.171875 -27.570312 4.441406 -28.953125 4.984375 -30.140625 C 5.535156 -31.335938 6.320312 -32.304688 7.34375 -33.046875 L 7.28125 -33.046875 C 8.257812 -33.710938 9.296875 -34.257812 10.390625 -34.6875 C 11.484375 -35.125 12.539062 -35.34375 13.5625 -35.34375 Z M 21.890625 -5.515625 C 23.335938 -5.515625 24.363281 -5.925781 24.96875 -6.75 C 25.582031 -7.570312 25.890625 -8.453125 25.890625 -9.390625 L 25.890625 -25.953125 C 25.890625 -26.929688 25.582031 -27.820312 24.96875 -28.625 C 24.363281 -29.425781 23.335938 -29.828125 21.890625 -29.828125 L 14.609375 -29.828125 C 13.160156 -29.828125 12.132812 -29.425781 11.53125 -28.625 C 10.925781 -27.820312 10.625 -26.929688 10.625 -25.953125 L 10.625 -9.390625 C 10.625 -8.453125 10.925781 -7.570312 11.53125 -6.75 C 12.132812 -5.925781 13.160156 -5.515625 14.609375 -5.515625 Z M 21.890625 -5.515625 "/></g></g></g><g fill="#000000" fill-opacity="1"><g transform="translate(303.07023, 95.391251)"><g><path d="M 10.625 -2.46875 C 10.625 -0.582031 9.546875 0.359375 7.390625 0.359375 C 5.242188 0.359375 4.171875 -0.582031 4.171875 -2.46875 L 4.171875 -26.0625 C 4.171875 -27.664062 4.421875 -29.054688 4.921875 -30.234375 C 5.429688 -31.410156 6.238281 -32.367188 7.34375 -33.109375 C 9.414062 -34.597656 11.488281 -35.34375 13.5625 -35.34375 L 23.015625 -35.34375 C 25.003906 -35.34375 27.078125 -34.597656 29.234375 -33.109375 C 31.347656 -31.617188 32.40625 -29.269531 32.40625 -26.0625 L 32.40625 -2.46875 C 32.40625 -0.582031 31.328125 0.359375 29.171875 0.359375 C 27.023438 0.359375 25.953125 -0.582031 25.953125 -2.46875 L 25.953125 -25.53125 C 25.953125 -26.550781 25.632812 -27.53125 25 -28.46875 L 25.0625 -28.40625 C 24.550781 -29.351562 23.515625 -29.828125 21.953125 -29.828125 L 14.609375 -29.828125 C 13.003906 -29.828125 11.953125 -29.351562 11.453125 -28.40625 C 10.898438 -27.582031 10.625 -26.625 10.625 -25.53125 Z M 10.625 -2.46875 "/></g></g></g><g fill="#000000" fill-opacity="1"><g transform="translate(338.876755, 95.391251)"><g><path d="M 23.25 -20.546875 C 24.226562 -20.546875 25.273438 -20.320312 26.390625 -19.875 C 27.503906 -19.425781 28.550781 -18.867188 29.53125 -18.203125 L 29.46875 -18.203125 C 30.488281 -17.453125 31.269531 -16.488281 31.8125 -15.3125 C 32.363281 -14.144531 32.640625 -12.738281 32.640625 -11.09375 L 32.640625 -9.328125 C 32.640625 -6.117188 31.582031 -3.753906 29.46875 -2.234375 C 28.445312 -1.453125 27.40625 -0.882812 26.34375 -0.53125 C 25.289062 -0.175781 24.257812 0 23.25 0 L 13.265625 0 C 12.242188 0 11.207031 -0.175781 10.15625 -0.53125 C 9.101562 -0.882812 8.066406 -1.453125 7.046875 -2.234375 C 4.929688 -3.722656 3.875 -6.085938 3.875 -9.328125 L 3.875 -10.03125 C 3.875 -11.71875 4.953125 -12.539062 7.109375 -12.5 C 9.296875 -12.5 10.390625 -11.675781 10.390625 -10.03125 L 10.390625 -9.390625 C 10.390625 -8.453125 10.679688 -7.570312 11.265625 -6.75 C 11.859375 -5.925781 12.894531 -5.515625 14.375 -5.515625 L 22.125 -5.515625 C 23.613281 -5.515625 24.648438 -5.925781 25.234375 -6.75 C 25.828125 -7.570312 26.125 -8.453125 26.125 -9.390625 L 26.125 -11.03125 C 26.125 -11.539062 26.054688 -12.03125 25.921875 -12.5 C 25.785156 -12.96875 25.554688 -13.390625 25.234375 -13.765625 C 24.921875 -14.140625 24.507812 -14.441406 24 -14.671875 C 23.5 -14.910156 22.875 -15.03125 22.125 -15.03125 L 13.5625 -15.03125 C 11.5625 -15.03125 9.46875 -15.734375 7.28125 -17.140625 C 5.207031 -18.472656 4.171875 -20.765625 4.171875 -24.015625 L 4.171875 -26 C 4.171875 -27.570312 4.441406 -28.953125 4.984375 -30.140625 C 5.535156 -31.335938 6.320312 -32.304688 7.34375 -33.046875 L 7.28125 -33.046875 C 8.257812 -33.710938 9.296875 -34.257812 10.390625 -34.6875 C 11.484375 -35.125 12.539062 -35.34375 13.5625 -35.34375 L 22.953125 -35.34375 C 23.972656 -35.34375 25.019531 -35.125 26.09375 -34.6875 C 27.164062 -34.257812 28.210938 -33.710938 29.234375 -33.046875 L 29.171875 -33.046875 C 30.191406 -32.304688 30.972656 -31.335938 31.515625 -30.140625 C 32.066406 -28.953125 32.34375 -27.570312 32.34375 -26 L 32.34375 -25.484375 C 32.34375 -24.660156 32.066406 -24.0625 31.515625 -23.6875 C 30.972656 -23.3125 30.171875 -23.109375 29.109375 -23.078125 C 26.960938 -23.035156 25.890625 -23.835938 25.890625 -25.484375 L 25.890625 -25.953125 C 25.890625 -26.929688 25.582031 -27.820312 24.96875 -28.625 C 24.363281 -29.425781 23.335938 -29.828125 21.890625 -29.828125 L 14.609375 -29.828125 C 13.160156 -29.828125 12.132812 -29.425781 11.53125 -28.625 C 10.925781 -27.820312 10.625 -26.929688 10.625 -25.953125 L 10.625 -24.53125 C 10.625 -23.519531 10.925781 -22.601562 11.53125 -21.78125 C 12.132812 -20.957031 13.160156 -20.546875 14.609375 -20.546875 Z M 23.25 -20.546875 "/></g></g></g><g transform="matrix(1, 0, 0, 1, 0, -0.000000000000007527)"><g clip-path="url(#268b91b3f4)"><g mask="url(#064e30d62e)"><g transform="matrix(1, 0, 0, 1, 0, -0.000000000000007527)"><g clip-path="url(#948edd9998)"><g clip-path="url(#df10896fff)"><path fill="url(#65e9534aa1)" d="M 0 0 L 0 150 L 228.15625 150 L 228.15625 0 Z M 0 0 " fill-rule="nonzero"/></g></g></g></g></g></g></svg>