<svg xmlns="http://www.w3.org/2000/svg" xmlns:xlink="http://www.w3.org/1999/xlink" width="2000" zoomAndPan="magnify" viewBox="0 0 1500 1499.999933" height="2000" preserveAspectRatio="xMidYMid meet" version="1.0"><defs><clipPath id="618119fc61"><path d="M 537.550781 1 L 923.519531 1 L 923.519531 1027 L 537.550781 1027 Z M 537.550781 1 " clip-rule="nonzero"/></clipPath><clipPath id="35576f4c69"><path d="M 537.550781 1334 L 668 1334 L 668 1437 L 537.550781 1437 Z M 537.550781 1334 " clip-rule="nonzero"/></clipPath><clipPath id="45ca810ba8"><path d="M 537.550781 1129 L 693 1129 L 693 1232 L 537.550781 1232 Z M 537.550781 1129 " clip-rule="nonzero"/></clipPath><clipPath id="396d84a5e6"><path d="M 0.449219 1 L 540.929688 1 L 540.929688 1027 L 0.449219 1027 Z M 0.449219 1 " clip-rule="nonzero"/></clipPath><clipPath id="24aebd75f1"><path d="M 256 1334 L 540.929688 1334 L 540.929688 1437 L 256 1437 Z M 256 1334 " clip-rule="nonzero"/></clipPath><clipPath id="1cebf538c0"><path d="M 231 1129 L 540.929688 1129 L 540.929688 1232 L 231 1232 Z M 231 1129 " clip-rule="nonzero"/></clipPath><clipPath id="03d6efbab0"><rect x="0" width="924" y="0" height="1438"/></clipPath></defs><g transform="matrix(1, 0, 0, 1, 288, 31)"><g clip-path="url(#03d6efbab0)"><g clip-path="url(#618119fc61)"><path fill="#737373" d="M 205.578125 846.296875 C 81.878906 763.460938 0.449219 622.433594 0.449219 462.578125 C 0.449219 207.867188 207.28125 1.03125 461.992188 1.03125 C 716.703125 1.03125 923.539062 207.867188 923.539062 462.578125 C 923.539062 622.433594 842.105469 763.460938 718.40625 846.296875 L 718.40625 975.40625 C 718.40625 1003.75 695.46875 1026.6875 667.125 1026.6875 C 638.777344 1026.6875 615.839844 1003.75 615.839844 975.40625 L 615.839844 817.851562 C 615.839844 799.621094 625.558594 782.695312 641.382812 773.480469 C 748.753906 711.378906 820.972656 595.390625 820.972656 462.578125 C 820.972656 264.457031 660.113281 103.597656 461.992188 103.597656 C 263.875 103.597656 103.015625 264.457031 103.015625 462.578125 C 103.015625 595.390625 175.230469 711.378906 282.605469 773.480469 C 298.429688 782.695312 308.144531 799.621094 308.144531 817.851562 L 308.144531 924.121094 L 461.992188 924.121094 C 490.339844 924.121094 513.277344 947.058594 513.277344 975.40625 C 513.277344 1003.75 490.339844 1026.6875 461.992188 1026.6875 L 256.863281 1026.6875 C 228.515625 1026.6875 205.578125 1003.75 205.578125 975.40625 L 205.578125 846.296875 " fill-opacity="1" fill-rule="evenodd"/></g><g clip-path="url(#35576f4c69)"><path fill="#737373" d="M 308.144531 1436.949219 L 615.839844 1436.949219 C 644.1875 1436.949219 667.125 1414.011719 667.125 1385.667969 C 667.125 1357.320312 644.1875 1334.382812 615.839844 1334.382812 L 308.144531 1334.382812 C 279.800781 1334.382812 256.863281 1357.320312 256.863281 1385.667969 C 256.863281 1414.011719 279.800781 1436.949219 308.144531 1436.949219 " fill-opacity="1" fill-rule="evenodd"/></g><g clip-path="url(#45ca810ba8)"><path fill="#737373" d="M 282.503906 1231.816406 L 641.484375 1231.816406 C 669.828125 1231.816406 692.765625 1208.882812 692.765625 1180.535156 C 692.765625 1152.191406 669.828125 1129.253906 641.484375 1129.253906 L 282.503906 1129.253906 C 254.15625 1129.253906 231.222656 1152.191406 231.222656 1180.535156 C 231.222656 1208.882812 254.15625 1231.816406 282.503906 1231.816406 " fill-opacity="1" fill-rule="evenodd"/></g><g clip-path="url(#396d84a5e6)"><path fill="#ff751f" d="M 205.578125 846.296875 C 81.878906 763.460938 0.449219 622.433594 0.449219 462.578125 C 0.449219 207.867188 207.28125 1.03125 461.992188 1.03125 C 716.703125 1.03125 923.539062 207.867188 923.539062 462.578125 C 923.539062 622.433594 842.105469 763.460938 718.40625 846.296875 L 718.40625 975.40625 C 718.40625 1003.75 695.46875 1026.6875 667.125 1026.6875 C 638.777344 1026.6875 615.839844 1003.75 615.839844 975.40625 L 615.839844 817.851562 C 615.839844 799.621094 625.558594 782.695312 641.382812 773.480469 C 748.753906 711.378906 820.972656 595.390625 820.972656 462.578125 C 820.972656 264.457031 660.113281 103.597656 461.992188 103.597656 C 263.875 103.597656 103.015625 264.457031 103.015625 462.578125 C 103.015625 595.390625 175.230469 711.378906 282.605469 773.480469 C 298.429688 782.695312 308.144531 799.621094 308.144531 817.851562 L 308.144531 924.121094 L 461.992188 924.121094 C 490.339844 924.121094 513.277344 947.058594 513.277344 975.40625 C 513.277344 1003.75 490.339844 1026.6875 461.992188 1026.6875 L 256.863281 1026.6875 C 228.515625 1026.6875 205.578125 1003.75 205.578125 975.40625 L 205.578125 846.296875 " fill-opacity="1" fill-rule="evenodd"/></g><g clip-path="url(#24aebd75f1)"><path fill="#ff751f" d="M 308.144531 1436.949219 L 615.839844 1436.949219 C 644.1875 1436.949219 667.125 1414.011719 667.125 1385.667969 C 667.125 1357.320312 644.1875 1334.382812 615.839844 1334.382812 L 308.144531 1334.382812 C 279.800781 1334.382812 256.863281 1357.320312 256.863281 1385.667969 C 256.863281 1414.011719 279.800781 1436.949219 308.144531 1436.949219 " fill-opacity="1" fill-rule="evenodd"/></g><g clip-path="url(#1cebf538c0)"><path fill="#ff751f" d="M 282.503906 1231.816406 L 641.484375 1231.816406 C 669.828125 1231.816406 692.765625 1208.882812 692.765625 1180.535156 C 692.765625 1152.191406 669.828125 1129.253906 641.484375 1129.253906 L 282.503906 1129.253906 C 254.15625 1129.253906 231.222656 1152.191406 231.222656 1180.535156 C 231.222656 1208.882812 254.15625 1231.816406 282.503906 1231.816406 " fill-opacity="1" fill-rule="evenodd"/></g></g></g></svg>